<svg xmlns="http://www.w3.org/2000/svg" viewBox="0 0 92.86 32.1"><defs><style>.cls-1{fill:#8886ff;}</style></defs><title>duck_code_logo_color</title><g id="Capa_2" data-name="Capa 2"><g id="Capa_1-2" data-name="Capa 1"><path class="cls-1" d="M12.49,32.1a2.08,2.08,0,0,0,.87-1.77c.12-1,.07-2.12.1-3.18.89.22,1.76.5,2.64.65,5.6.94,10.34-2,12-7.63A18.38,18.38,0,0,0,27.57,8a11.7,11.7,0,0,0-7-6.68A19.77,19.77,0,0,0,12.1.05C11,.11,10.65.61,11,1.7a35.11,35.11,0,0,1,1.14,11.41,2,2,0,0,1,0,.24c-.5-.23-1-.49-1.47-.68a7.5,7.5,0,0,0-4.49-.34,7.75,7.75,0,0,0-3.92,2.28,8.17,8.17,0,0,0-1.48,8.9A7.83,7.83,0,0,0,8,28.21a3,3,0,0,1,2.59,1.71c.48.72.93,1.45,1.4,2.17Zm-.63-31A.58.58,0,0,1,12,1,19.71,19.71,0,0,1,20.36,2.2,11,11,0,0,1,27.3,10a19.25,19.25,0,0,1,.32,7.89,12.17,12.17,0,0,1-2,5.32,9.66,9.66,0,0,1-11,3.26c-1-.34-1.68-.79-1.6-2a1.57,1.57,0,0,0,0-.3,1,1,0,0,0-1.89-.31c-.2.39-.4.78-.57,1.18C9.68,27,8.83,27.51,6.82,27.18a7,7,0,0,1-5.76-5.63,7.17,7.17,0,0,1,3.14-7.4,6.69,6.69,0,0,1,7.88.46c.16.12.46.26.58.19a.88.88,0,0,0,.33-.6,42.33,42.33,0,0,0-.24-8.57C12.51,4.11,12.17,2.61,11.86,1.05Zm.39,30c-.71-1.33-1.23-2.6-2.57-3.29,1.35-.8,1.55-2.29,2.35-3.56C12.31,26.5,12.94,28.63,12.25,31Z"/><path class="cls-1" d="M8.53,22.49a.88.88,0,1,1-.86-.92A.89.89,0,0,1,8.53,22.49Z"/></g><g id="Capa_3" data-name="Capa 3"><path class="cls-1" d="M32.79,20.07a3.35,3.35,0,0,1-1.64-.36,2.23,2.23,0,0,1-1-1.1,4.63,4.63,0,0,1-.31-1.83V13.15a1.21,1.21,0,1,1,2.41,0v3.68a1.63,1.63,0,0,0,.29,1,1.1,1.1,0,0,0,.9.35,1.44,1.44,0,0,0,1.14-.49,1.87,1.87,0,0,0,.44-1.29V13.15a1.21,1.21,0,1,1,2.42,0v5.68c0,.81-.39,1.21-1.17,1.21a1.1,1.1,0,0,1-1.2-1.21V17.74l.25.64a2.6,2.6,0,0,1-2.56,1.69Z"/><path class="cls-1" d="M43.16,20.07a4.72,4.72,0,0,1-2.22-.49,3.55,3.55,0,0,1-1.47-1.43A4.46,4.46,0,0,1,39,16a4.71,4.71,0,0,1,.29-1.69A3.32,3.32,0,0,1,40.08,13a3.7,3.7,0,0,1,1.34-.81,5,5,0,0,1,1.74-.28,5.23,5.23,0,0,1,1.07.12,4.74,4.74,0,0,1,1.11.39,1,1,0,0,1,.42.43,1,1,0,0,1,.09.54,1,1,0,0,1-.2.49.74.74,0,0,1-1,.2,2.82,2.82,0,0,0-.63-.24,2.38,2.38,0,0,0-.62-.09,2.26,2.26,0,0,0-.85.15,1.69,1.69,0,0,0-.61.43,1.9,1.9,0,0,0-.39.7,3,3,0,0,0-.13.94,2.47,2.47,0,0,0,.52,1.67,1.8,1.8,0,0,0,1.46.62,2.69,2.69,0,0,0,.61-.08,2.46,2.46,0,0,0,.64-.26.79.79,0,0,1,.57-.08.93.93,0,0,1,.41.3.81.81,0,0,1,.19.5,1.1,1.1,0,0,1-.11.53.82.82,0,0,1-.42.4,3.72,3.72,0,0,1-1.08.4A4.94,4.94,0,0,1,43.16,20.07Z"/><path class="cls-1" d="M48.19,20A1.1,1.1,0,0,1,47,18.83V9.72a1.18,1.18,0,0,1,.32-.91,1.22,1.22,0,0,1,.88-.3,1.25,1.25,0,0,1,.9.3,1.21,1.21,0,0,1,.31.91v5.6h0l2.32-2.57a3.59,3.59,0,0,1,.64-.62,1.43,1.43,0,0,1,.8-.2,1.05,1.05,0,0,1,.77.26.88.88,0,0,1,.27.61,1.17,1.17,0,0,1-.32.75l-2.44,2.7v-.91l2.72,3.13a1,1,0,0,1,.26.76.84.84,0,0,1-.34.59,1.14,1.14,0,0,1-.72.22,1.71,1.71,0,0,1-.88-.2,2.8,2.8,0,0,1-.66-.61l-2.42-2.71h0v2.31A1.07,1.07,0,0,1,48.19,20Z"/><path class="cls-1" d="M61.58,20.07a6.3,6.3,0,0,1-3.11-.71,4.81,4.81,0,0,1-2-2,6.52,6.52,0,0,1-.68-3.07,7,7,0,0,1,.39-2.39A5.11,5.11,0,0,1,57.32,10a5,5,0,0,1,1.83-1.17,7.3,7.3,0,0,1,4.08-.2,4.63,4.63,0,0,1,1.42.56,1.25,1.25,0,0,1,.54.56,1.09,1.09,0,0,1,.09.66A1.24,1.24,0,0,1,65,11a1,1,0,0,1-.54.32,1.07,1.07,0,0,1-.72-.16,3.46,3.46,0,0,0-1-.41,4.21,4.21,0,0,0-1.08-.13,3.58,3.58,0,0,0-1.8.42,2.68,2.68,0,0,0-1.08,1.22,4.8,4.8,0,0,0-.36,2,4.83,4.83,0,0,0,.36,2,2.58,2.58,0,0,0,1.08,1.24,3.48,3.48,0,0,0,1.8.43,4.39,4.39,0,0,0,2.08-.53,1.19,1.19,0,0,1,.74-.15,1,1,0,0,1,.54.29,1.19,1.19,0,0,1,.28.56,1.08,1.08,0,0,1-.07.64,1.14,1.14,0,0,1-.48.53,4.81,4.81,0,0,1-1.45.62A7.25,7.25,0,0,1,61.58,20.07Z"/><path class="cls-1" d="M70.07,20.07a4.6,4.6,0,0,1-2.19-.49,3.54,3.54,0,0,1-1.45-1.42A4.42,4.42,0,0,1,65.91,16a4.77,4.77,0,0,1,.29-1.7A3.52,3.52,0,0,1,67,13a3.8,3.8,0,0,1,1.33-.81,4.89,4.89,0,0,1,1.7-.28,4.61,4.61,0,0,1,2.2.49,3.57,3.57,0,0,1,1.46,1.42A4.3,4.3,0,0,1,74.25,16a4.65,4.65,0,0,1-.3,1.71,3.48,3.48,0,0,1-.84,1.3,3.56,3.56,0,0,1-1.31.8A4.94,4.94,0,0,1,70.07,20.07Zm0-1.79a1.53,1.53,0,0,0,1.52-1A3.2,3.2,0,0,0,71.82,16a2.58,2.58,0,0,0-.48-1.72,1.59,1.59,0,0,0-1.27-.55,1.68,1.68,0,0,0-.9.24,1.6,1.6,0,0,0-.61.75A3.39,3.39,0,0,0,68.35,16a2.62,2.62,0,0,0,.48,1.74A1.53,1.53,0,0,0,70.07,18.28Z"/><path class="cls-1" d="M78.78,20.07a3.32,3.32,0,0,1-1.8-.48,3.26,3.26,0,0,1-1.21-1.42A5.13,5.13,0,0,1,75.34,16a5,5,0,0,1,.43-2.18A3.29,3.29,0,0,1,77,12.39a3.24,3.24,0,0,1,1.8-.49,3,3,0,0,1,1.64.45,2.08,2.08,0,0,1,1,1.16h-.17V9.72a1.25,1.25,0,0,1,.3-.91,1.24,1.24,0,0,1,.9-.3,1.29,1.29,0,0,1,.9.3,1.21,1.21,0,0,1,.32.91v9.11a1.22,1.22,0,0,1-.32.9,1.16,1.16,0,0,1-.87.31,1.09,1.09,0,0,1-1.21-1.21V17.74l.17.62a2.18,2.18,0,0,1-1,1.25A3,3,0,0,1,78.78,20.07Zm.72-1.79a1.61,1.61,0,0,0,.91-.25,1.58,1.58,0,0,0,.61-.76A3.21,3.21,0,0,0,81.24,16a2.58,2.58,0,0,0-.48-1.72,1.58,1.58,0,0,0-1.26-.55,1.72,1.72,0,0,0-.91.24,1.53,1.53,0,0,0-.6.75A3.2,3.2,0,0,0,77.77,16a2.62,2.62,0,0,0,.48,1.74A1.55,1.55,0,0,0,79.5,18.28Z"/><path class="cls-1" d="M89.56,20.07a5.34,5.34,0,0,1-2.39-.49,3.53,3.53,0,0,1-1.54-1.42A4.32,4.32,0,0,1,85.1,16a4.14,4.14,0,0,1,.52-2.12,3.78,3.78,0,0,1,1.43-1.43,4.36,4.36,0,0,1,3.62-.25,3.34,3.34,0,0,1,1.18.8,3.38,3.38,0,0,1,.75,1.26,5.12,5.12,0,0,1,.26,1.66.54.54,0,0,1-.2.45.81.81,0,0,1-.56.16h-5V15.26h4l-.25.22a2.65,2.65,0,0,0-.2-1.09,1.44,1.44,0,0,0-.55-.68,1.63,1.63,0,0,0-.89-.23,1.66,1.66,0,0,0-1.64,1.07,3.08,3.08,0,0,0-.23,1.24v.12a2.54,2.54,0,0,0,.56,1.8,2.3,2.3,0,0,0,1.7.57,4.85,4.85,0,0,0,.87-.09,4.32,4.32,0,0,0,.94-.31,1,1,0,0,1,.65-.11.79.79,0,0,1,.44.26.82.82,0,0,1,.19.48,1,1,0,0,1-.12.53,1,1,0,0,1-.46.44,3.89,3.89,0,0,1-1.25.46A6.76,6.76,0,0,1,89.56,20.07Z"/></g></g></svg>